<?xml version="1.0" encoding="UTF-8"?><svg width="175" height="51" viewBox="0 0 175 51" fill="none" xmlns="http://www.w3.org/2000/svg"><g clip-path="url(#clip0)"><path d="M63.1635 29.1657L68.46 38.1129H75.8751L67.4822 24.6308L75.5084 16.1739H68.3785L60.3523 24.4674V7.79862H54.078V38.1129H60.3523V32.1481L63.1635 29.1657ZM81.6255 6.3687C79.6291 6.3687 78.2439 7.83947 78.2439 9.88221C78.2439 11.925 79.6291 13.3957 81.6255 13.3957C83.6218 13.3957 85.0071 11.925 85.0071 9.88221C85.0071 7.83947 83.6218 6.3687 81.6255 6.3687ZM84.7626 38.1129V16.133H78.4883V38.1129H84.7626ZM117.021 38.1129L125.006 16.133H118.813L114.006 31.8621L109.198 16.133H103.046L98.3199 31.8621L93.4309 16.133L87.0343 16.1739L95.0605 38.1129H101.335L106.02 23.6094L110.746 38.1129H117.021ZM130.297 6.3687C128.3 6.3687 126.915 7.83947 126.915 9.88221C126.915 11.925 128.3 13.3957 130.297 13.3957C132.293 13.3957 133.678 11.925 133.678 9.88221C133.678 7.83947 132.293 6.3687 130.297 6.3687ZM133.434 38.1129V16.133H127.159V38.1129H133.434ZM148.865 12.7012C149.761 12.7012 150.78 13.028 151.595 13.6409L153.836 9.06512C152.287 8.04375 150.128 7.51263 148.091 7.51263C143.691 7.51263 140.024 10.1273 140.024 15.0299V17.1135H137.091V21.485H140.024V38.1129H146.258V21.485H151.432V17.1135H146.258V15.2751C146.258 13.5183 147.398 12.7012 148.865 12.7012ZM174.873 16.133H168.598L163.424 31.2493L157.679 16.133H151.201L160.287 37.6635L159.676 38.8891C159.065 40.1965 158.087 40.8502 156.783 40.8502C155.764 40.8502 154.909 40.4825 153.931 39.6654L151.283 44.2003C153.075 45.6711 154.909 46.3247 157.231 46.3247C161.02 46.3247 163.709 44.4454 165.257 40.5642L174.873 16.133Z" fill="#2DB56F"/><path d="M41.6623 33.0801C33.8212 40.9426 21.0632 40.9426 13.2222 33.0801C5.3812 25.2173 5.3812 12.424 13.2222 4.56128L8.4826 -0.19191C-1.98883 10.3085 -1.98883 27.3328 8.4826 37.8327C18.954 48.3327 35.9313 48.3329 46.4023 37.8327L41.6623 33.0801Z" fill="#2DB56F"/><path d="M34.2912 32.297C35.219 31.8229 35.2045 29.9304 34.2592 28.0697C33.3137 26.2091 31.795 25.085 30.8675 25.5591C29.9397 26.0331 29.954 27.9258 30.8995 29.7865C31.8448 31.6472 33.3635 32.7711 34.2912 32.297Z" fill="#2DB56F"/><path d="M14.0056 11.9554C13.5329 12.8857 14.6538 14.4085 16.5094 15.3565C18.3649 16.3046 20.2523 16.319 20.725 15.3887C21.1978 14.4584 20.0768 12.9356 18.2213 11.9876C16.3658 11.0395 14.4783 11.0251 14.0056 11.9554Z" fill="#2DB56F"/><path d="M16.7761 29.5145C17.5122 30.2529 19.3029 29.6546 20.7757 28.1781C22.2484 26.7018 22.8455 24.9063 22.1094 24.1679C21.3732 23.4295 19.5825 24.0278 18.1098 25.5042C16.637 26.9806 16.0399 28.7761 16.7761 29.5145Z" fill="#2DB56F"/><path d="M25.0855 33.7601C26.114 33.9235 27.2117 32.3836 27.5374 30.3212C27.863 28.2587 27.2935 26.4542 26.265 26.2909C25.2366 26.1276 24.1388 27.6672 23.8131 29.7297C23.4874 31.7925 24.0571 33.597 25.0855 33.7601Z" fill="#2DB56F"/><path d="M12.5459 21.1847C12.7086 22.216 14.508 22.7874 16.5649 22.461C18.6218 22.1346 20.1573 21.034 19.9945 20.0027C19.8318 18.9714 18.0324 18.4 15.9755 18.7264C13.9187 19.0528 12.3831 20.1534 12.5459 21.1847Z" fill="#2DB56F"/></g><defs><clipPath id="clip0"><rect width="175" height="51" fill="white"/></clipPath></defs></svg>
